/home/xinjie/Newton_Connection/Newton/phystwin_bridge/tools/core/newton_import_ir.py:1209: UserWarning: tabletop_table_box: PhysTwin ground collide_elas is present in IR, but native Newton SemiImplicit has no direct 1-to-1 restitution field for particle-vs-shape contacts. Ground bounce will therefore use native Newton ground ke/kd/kf defaults unless --ground-restitution-mode=approximate-native is selected.
  warnings.warn(message)
ffmpeg version 6.1.1-3ubuntu5+esm7 Copyright (c) 2000-2023 the FFmpeg developers
  built with gcc 13 (Ubuntu 13.3.0-6ubuntu2~24.04)
  configuration: --prefix=/usr --extra-version=3ubuntu5+esm7 --toolchain=hardened --libdir=/usr/lib/x86_64-linux-gnu --incdir=/usr/include/x86_64-linux-gnu --arch=amd64 --enable-gpl --disable-stripping --disable-omx --enable-gnutls --enable-libaom --enable-libass --enable-libbs2b --enable-libcaca --enable-libcdio --enable-libcodec2 --enable-libdav1d --enable-libflite --enable-libfontconfig --enable-libfreetype --enable-libfribidi --enable-libglslang --enable-libgme --enable-libgsm --enable-libharfbuzz --enable-libmp3lame --enable-libmysofa --enable-libopenjpeg --enable-libopenmpt --enable-libopus --enable-librubberband --enable-libshine --enable-libsnappy --enable-libsoxr --enable-libspeex --enable-libtheora --enable-libtwolame --enable-libvidstab --enable-libvorbis --enable-libvpx --enable-libwebp --enable-libx265 --enable-libxml2 --enable-libxvid --enable-libzimg --enable-openal --enable-opencl --enable-opengl --disable-sndio --enable-libvpl --disable-libmfx --enable-libdc1394 --enable-libdrm --enable-libiec61883 --enable-chromaprint --enable-frei0r --enable-ladspa --enable-libbluray --enable-libjack --enable-libpulse --enable-librabbitmq --enable-librist --enable-libsrt --enable-libssh --enable-libsvtav1 --enable-libx264 --enable-libzmq --enable-libzvbi --enable-lv2 --enable-sdl2 --enable-libplacebo --enable-librav1e --enable-pocketsphinx --enable-librsvg --enable-libjxl --enable-shared
  libavutil      58. 29.100 / 58. 29.100
  libavcodec     60. 31.102 / 60. 31.102
  libavformat    60. 16.100 / 60. 16.100
  libavdevice    60.  3.100 / 60.  3.100
  libavfilter     9. 12.100 /  9. 12.100
  libswscale      7.  5.100 /  7.  5.100
  libswresample   4. 12.100 /  4. 12.100
  libpostproc    57.  3.100 / 57.  3.100
Input #0, rawvideo, from 'fd:':
  Duration: N/A, start: 0.000000, bitrate: 663552 kb/s
  Stream #0:0: Video: rawvideo (RGB[24] / 0x18424752), rgb24, 1280x720, 663552 kb/s, 30 tbr, 30 tbn
Stream mapping:
  Stream #0:0 -> #0:0 (rawvideo (native) -> h264 (libx264))
[libx264 @ 0x612ae54f3480] using cpu capabilities: MMX2 SSE2Fast SSSE3 SSE4.2 AVX FMA3 BMI2 AVX2
[libx264 @ 0x612ae54f3480] profile High, level 3.1, 4:2:0, 8-bit
[libx264 @ 0x612ae54f3480] 264 - core 164 r3108 31e19f9 - H.264/MPEG-4 AVC codec - Copyleft 2003-2023 - http://www.videolan.org/x264.html - options: cabac=1 ref=3 deblock=1:0:0 analyse=0x3:0x113 me=hex subme=7 psy=1 psy_rd=1.00:0.00 mixed_ref=1 me_range=16 chroma_me=1 trellis=1 8x8dct=1 cqm=0 deadzone=21,11 fast_pskip=1 chroma_qp_offset=-2 threads=22 lookahead_threads=3 sliced_threads=0 nr=0 decimate=1 interlaced=0 bluray_compat=0 constrained_intra=0 bframes=3 b_pyramid=2 b_adapt=1 b_bias=0 direct=1 weightb=1 open_gop=0 weightp=2 keyint=250 keyint_min=25 scenecut=40 intra_refresh=0 rc_lookahead=40 rc=crf mbtree=1 crf=18.0 qcomp=0.60 qpmin=0 qpmax=69 qpstep=4 ip_ratio=1.40 aq=1:1.00
Output #0, mp4, to '/home/xinjie/Newton_Connection/Newton/phystwin_bridge/results/robot_rope_franka/candidates/20260401_074926_fixeddt_c05_rotfix_reach/presentation/work/robot_rope_tabletop_hero.mp4':
  Metadata:
    encoder         : Lavf60.16.100
  Stream #0:0: Video: h264 (avc1 / 0x31637661), yuv420p(tv, progressive), 1280x720, q=2-31, 30 fps, 15360 tbn
    Metadata:
      encoder         : Lavc60.31.102 libx264
    Side data:
      cpb: bitrate max/min/avg: 0/0/0 buffer size: 0 vbv_delay: N/A
frame=    0 fps=0.0 q=0.0 size=       0kB time=N/A bitrate=N/A speed=N/A    frame=   15 fps=0.0 q=24.0 size=       0kB time=00:00:00.43 bitrate=   0.9kbits/s speed=0.863x    frame=   87 fps= 86 q=24.0 size=       0kB time=00:00:02.83 bitrate=   0.1kbits/s speed=2.81x    [out#0/mp4 @ 0x612ae54f1c80] video:254kB audio:0kB subtitle:0kB other streams:0kB global headers:0kB muxing overhead: 1.158252%
frame=  180 fps=150 q=-1.0 Lsize=     257kB time=00:00:05.90 bitrate= 356.7kbits/s speed=4.92x    
[libx264 @ 0x612ae54f3480] frame I:1     Avg QP: 9.93  size: 91403
[libx264 @ 0x612ae54f3480] frame P:45    Avg QP:13.97  size:  2533
[libx264 @ 0x612ae54f3480] frame B:134   Avg QP:17.49  size:   403
[libx264 @ 0x612ae54f3480] consecutive B-frames:  0.6%  0.0%  1.7% 97.8%
[libx264 @ 0x612ae54f3480] mb I  I16..4: 31.2% 27.4% 41.4%
[libx264 @ 0x612ae54f3480] mb P  I16..4:  0.1%  0.0%  0.0%  P16..4:  2.3%  0.8%  0.8%  0.0%  0.0%    skip:96.0%
[libx264 @ 0x612ae54f3480] mb B  I16..4:  0.0%  0.0%  0.0%  B16..8:  1.5%  0.3%  0.2%  direct: 0.1%  skip:97.9%  L0:44.5% L1:46.5% BI: 9.0%
[libx264 @ 0x612ae54f3480] 8x8 transform intra:27.0% inter:14.6%
[libx264 @ 0x612ae54f3480] coded y,uvDC,uvAC intra: 36.0% 52.0% 48.8% inter: 0.6% 0.4% 0.2%
[libx264 @ 0x612ae54f3480] i16 v,h,dc,p: 66% 21%  9%  3%
[libx264 @ 0x612ae54f3480] i8 v,h,dc,ddl,ddr,vr,hd,vl,hu: 56% 14% 16%  2%  2%  1%  4%  1%  4%
[libx264 @ 0x612ae54f3480] i4 v,h,dc,ddl,ddr,vr,hd,vl,hu: 18% 38% 17%  2%  3%  2% 10%  1%  8%
[libx264 @ 0x612ae54f3480] i8c dc,h,v,p: 67% 24%  6%  4%
[libx264 @ 0x612ae54f3480] Weighted P-Frames: Y:0.0% UV:0.0%
[libx264 @ 0x612ae54f3480] ref P L0: 69.9%  5.9% 15.6%  8.6%
[libx264 @ 0x612ae54f3480] ref B L0: 63.8% 30.8%  5.4%
[libx264 @ 0x612ae54f3480] ref B L1: 88.1% 11.9%
[libx264 @ 0x612ae54f3480] kb/s:345.81
/home/xinjie/Newton_Connection/Newton/phystwin_bridge/tools/core/newton_import_ir.py:1209: UserWarning: tabletop_table_box: PhysTwin ground collide_elas is present in IR, but native Newton SemiImplicit has no direct 1-to-1 restitution field for particle-vs-shape contacts. Ground bounce will therefore use native Newton ground ke/kd/kf defaults unless --ground-restitution-mode=approximate-native is selected.
  warnings.warn(message)
ffmpeg version 6.1.1-3ubuntu5+esm7 Copyright (c) 2000-2023 the FFmpeg developers
  built with gcc 13 (Ubuntu 13.3.0-6ubuntu2~24.04)
  configuration: --prefix=/usr --extra-version=3ubuntu5+esm7 --toolchain=hardened --libdir=/usr/lib/x86_64-linux-gnu --incdir=/usr/include/x86_64-linux-gnu --arch=amd64 --enable-gpl --disable-stripping --disable-omx --enable-gnutls --enable-libaom --enable-libass --enable-libbs2b --enable-libcaca --enable-libcdio --enable-libcodec2 --enable-libdav1d --enable-libflite --enable-libfontconfig --enable-libfreetype --enable-libfribidi --enable-libglslang --enable-libgme --enable-libgsm --enable-libharfbuzz --enable-libmp3lame --enable-libmysofa --enable-libopenjpeg --enable-libopenmpt --enable-libopus --enable-librubberband --enable-libshine --enable-libsnappy --enable-libsoxr --enable-libspeex --enable-libtheora --enable-libtwolame --enable-libvidstab --enable-libvorbis --enable-libvpx --enable-libwebp --enable-libx265 --enable-libxml2 --enable-libxvid --enable-libzimg --enable-openal --enable-opencl --enable-opengl --disable-sndio --enable-libvpl --disable-libmfx --enable-libdc1394 --enable-libdrm --enable-libiec61883 --enable-chromaprint --enable-frei0r --enable-ladspa --enable-libbluray --enable-libjack --enable-libpulse --enable-librabbitmq --enable-librist --enable-libsrt --enable-libssh --enable-libsvtav1 --enable-libx264 --enable-libzmq --enable-libzvbi --enable-lv2 --enable-sdl2 --enable-libplacebo --enable-librav1e --enable-pocketsphinx --enable-librsvg --enable-libjxl --enable-shared
  libavutil      58. 29.100 / 58. 29.100
  libavcodec     60. 31.102 / 60. 31.102
  libavformat    60. 16.100 / 60. 16.100
  libavdevice    60.  3.100 / 60.  3.100
  libavfilter     9. 12.100 /  9. 12.100
  libswscale      7.  5.100 /  7.  5.100
  libswresample   4. 12.100 /  4. 12.100
  libpostproc    57.  3.100 / 57.  3.100
Input #0, rawvideo, from 'fd:':
  Duration: N/A, start: 0.000000, bitrate: 663552 kb/s
  Stream #0:0: Video: rawvideo (RGB[24] / 0x18424752), rgb24, 1280x720, 663552 kb/s, 30 tbr, 30 tbn
Stream mapping:
  Stream #0:0 -> #0:0 (rawvideo (native) -> h264 (libx264))
[libx264 @ 0x5fbe846f1480] using cpu capabilities: MMX2 SSE2Fast SSSE3 SSE4.2 AVX FMA3 BMI2 AVX2
[libx264 @ 0x5fbe846f1480] profile High, level 3.1, 4:2:0, 8-bit
[libx264 @ 0x5fbe846f1480] 264 - core 164 r3108 31e19f9 - H.264/MPEG-4 AVC codec - Copyleft 2003-2023 - http://www.videolan.org/x264.html - options: cabac=1 ref=3 deblock=1:0:0 analyse=0x3:0x113 me=hex subme=7 psy=1 psy_rd=1.00:0.00 mixed_ref=1 me_range=16 chroma_me=1 trellis=1 8x8dct=1 cqm=0 deadzone=21,11 fast_pskip=1 chroma_qp_offset=-2 threads=22 lookahead_threads=3 sliced_threads=0 nr=0 decimate=1 interlaced=0 bluray_compat=0 constrained_intra=0 bframes=3 b_pyramid=2 b_adapt=1 b_bias=0 direct=1 weightb=1 open_gop=0 weightp=2 keyint=250 keyint_min=25 scenecut=40 intra_refresh=0 rc_lookahead=40 rc=crf mbtree=1 crf=18.0 qcomp=0.60 qpmin=0 qpmax=69 qpstep=4 ip_ratio=1.40 aq=1:1.00
Output #0, mp4, to '/home/xinjie/Newton_Connection/Newton/phystwin_bridge/results/robot_rope_franka/candidates/20260401_074926_fixeddt_c05_rotfix_reach/debug/work/robot_rope_tabletop_hero_debug.mp4':
  Metadata:
    encoder         : Lavf60.16.100
  Stream #0:0: Video: h264 (avc1 / 0x31637661), yuv420p(tv, progressive), 1280x720, q=2-31, 30 fps, 15360 tbn
    Metadata:
      encoder         : Lavc60.31.102 libx264
    Side data:
      cpb: bitrate max/min/avg: 0/0/0 buffer size: 0 vbv_delay: N/A
frame=    0 fps=0.0 q=0.0 size=       0kB time=N/A bitrate=N/A speed=N/A    frame=    0 fps=0.0 q=0.0 size=       0kB time=N/A bitrate=N/A speed=N/A    frame=   29 fps= 29 q=24.0 size=       0kB time=00:00:00.90 bitrate=   0.4kbits/s speed=0.891x    frame=   78 fps= 51 q=24.0 size=       0kB time=00:00:02.53 bitrate=   0.2kbits/s speed=1.67x    [out#0/mp4 @ 0x5fbe846efc80] video:258kB audio:0kB subtitle:0kB other streams:0kB global headers:0kB muxing overhead: 1.140041%
frame=  180 fps= 94 q=-1.0 Lsize=     261kB time=00:00:05.90 bitrate= 362.3kbits/s speed=3.08x    
[libx264 @ 0x5fbe846f1480] frame I:1     Avg QP:12.11  size: 52960
[libx264 @ 0x5fbe846f1480] frame P:45    Avg QP:16.38  size:  3189
[libx264 @ 0x5fbe846f1480] frame B:134   Avg QP:24.82  size:   500
[libx264 @ 0x5fbe846f1480] consecutive B-frames:  0.6%  0.0%  1.7% 97.8%
[libx264 @ 0x5fbe846f1480] mb I  I16..4: 34.8% 43.4% 21.8%
[libx264 @ 0x5fbe846f1480] mb P  I16..4:  0.1%  0.1%  0.1%  P16..4:  2.1%  0.9%  0.9%  0.0%  0.0%    skip:95.8%
[libx264 @ 0x5fbe846f1480] mb B  I16..4:  0.0%  0.1%  0.0%  B16..8:  1.5%  0.3%  0.2%  direct: 0.2%  skip:97.8%  L0:41.4% L1:49.7% BI: 8.9%
[libx264 @ 0x5fbe846f1480] 8x8 transform intra:45.8% inter:22.0%
[libx264 @ 0x5fbe846f1480] coded y,uvDC,uvAC intra: 18.6% 20.5% 15.0% inter: 0.6% 0.5% 0.3%
[libx264 @ 0x5fbe846f1480] i16 v,h,dc,p: 79% 17%  4%  1%
[libx264 @ 0x5fbe846f1480] i8 v,h,dc,ddl,ddr,vr,hd,vl,hu: 45% 17% 35%  0%  0%  0%  0%  0%  1%
[libx264 @ 0x5fbe846f1480] i4 v,h,dc,ddl,ddr,vr,hd,vl,hu: 28% 31% 13%  3%  4%  4%  7%  4%  6%
[libx264 @ 0x5fbe846f1480] i8c dc,h,v,p: 71% 16% 11%  2%
[libx264 @ 0x5fbe846f1480] Weighted P-Frames: Y:0.0% UV:0.0%
[libx264 @ 0x5fbe846f1480] ref P L0: 74.2%  6.4% 13.3%  6.0%
[libx264 @ 0x5fbe846f1480] ref B L0: 78.0% 18.4%  3.6%
[libx264 @ 0x5fbe846f1480] ref B L1: 94.0%  6.0%
[libx264 @ 0x5fbe846f1480] kb/s:351.35
/home/xinjie/Newton_Connection/Newton/phystwin_bridge/tools/core/newton_import_ir.py:1209: UserWarning: tabletop_table_box: PhysTwin ground collide_elas is present in IR, but native Newton SemiImplicit has no direct 1-to-1 restitution field for particle-vs-shape contacts. Ground bounce will therefore use native Newton ground ke/kd/kf defaults unless --ground-restitution-mode=approximate-native is selected.
  warnings.warn(message)
ffmpeg version 6.1.1-3ubuntu5+esm7 Copyright (c) 2000-2023 the FFmpeg developers
  built with gcc 13 (Ubuntu 13.3.0-6ubuntu2~24.04)
  configuration: --prefix=/usr --extra-version=3ubuntu5+esm7 --toolchain=hardened --libdir=/usr/lib/x86_64-linux-gnu --incdir=/usr/include/x86_64-linux-gnu --arch=amd64 --enable-gpl --disable-stripping --disable-omx --enable-gnutls --enable-libaom --enable-libass --enable-libbs2b --enable-libcaca --enable-libcdio --enable-libcodec2 --enable-libdav1d --enable-libflite --enable-libfontconfig --enable-libfreetype --enable-libfribidi --enable-libglslang --enable-libgme --enable-libgsm --enable-libharfbuzz --enable-libmp3lame --enable-libmysofa --enable-libopenjpeg --enable-libopenmpt --enable-libopus --enable-librubberband --enable-libshine --enable-libsnappy --enable-libsoxr --enable-libspeex --enable-libtheora --enable-libtwolame --enable-libvidstab --enable-libvorbis --enable-libvpx --enable-libwebp --enable-libx265 --enable-libxml2 --enable-libxvid --enable-libzimg --enable-openal --enable-opencl --enable-opengl --disable-sndio --enable-libvpl --disable-libmfx --enable-libdc1394 --enable-libdrm --enable-libiec61883 --enable-chromaprint --enable-frei0r --enable-ladspa --enable-libbluray --enable-libjack --enable-libpulse --enable-librabbitmq --enable-librist --enable-libsrt --enable-libssh --enable-libsvtav1 --enable-libx264 --enable-libzmq --enable-libzvbi --enable-lv2 --enable-sdl2 --enable-libplacebo --enable-librav1e --enable-pocketsphinx --enable-librsvg --enable-libjxl --enable-shared
  libavutil      58. 29.100 / 58. 29.100
  libavcodec     60. 31.102 / 60. 31.102
  libavformat    60. 16.100 / 60. 16.100
  libavdevice    60.  3.100 / 60.  3.100
  libavfilter     9. 12.100 /  9. 12.100
  libswscale      7.  5.100 /  7.  5.100
  libswresample   4. 12.100 /  4. 12.100
  libpostproc    57.  3.100 / 57.  3.100
Input #0, rawvideo, from 'fd:':
  Duration: N/A, start: 0.000000, bitrate: 663552 kb/s
  Stream #0:0: Video: rawvideo (RGB[24] / 0x18424752), rgb24, 1280x720, 663552 kb/s, 30 tbr, 30 tbn
Stream mapping:
  Stream #0:0 -> #0:0 (rawvideo (native) -> h264 (libx264))
[libx264 @ 0x5aa2fb52c480] using cpu capabilities: MMX2 SSE2Fast SSSE3 SSE4.2 AVX FMA3 BMI2 AVX2
[libx264 @ 0x5aa2fb52c480] profile High, level 3.1, 4:2:0, 8-bit
[libx264 @ 0x5aa2fb52c480] 264 - core 164 r3108 31e19f9 - H.264/MPEG-4 AVC codec - Copyleft 2003-2023 - http://www.videolan.org/x264.html - options: cabac=1 ref=3 deblock=1:0:0 analyse=0x3:0x113 me=hex subme=7 psy=1 psy_rd=1.00:0.00 mixed_ref=1 me_range=16 chroma_me=1 trellis=1 8x8dct=1 cqm=0 deadzone=21,11 fast_pskip=1 chroma_qp_offset=-2 threads=22 lookahead_threads=3 sliced_threads=0 nr=0 decimate=1 interlaced=0 bluray_compat=0 constrained_intra=0 bframes=3 b_pyramid=2 b_adapt=1 b_bias=0 direct=1 weightb=1 open_gop=0 weightp=2 keyint=250 keyint_min=25 scenecut=40 intra_refresh=0 rc_lookahead=40 rc=crf mbtree=1 crf=18.0 qcomp=0.60 qpmin=0 qpmax=69 qpstep=4 ip_ratio=1.40 aq=1:1.00
Output #0, mp4, to '/home/xinjie/Newton_Connection/Newton/phystwin_bridge/results/robot_rope_franka/candidates/20260401_074926_fixeddt_c05_rotfix_reach/debug/work/robot_rope_tabletop_hero_debug.mp4':
  Metadata:
    encoder         : Lavf60.16.100
  Stream #0:0: Video: h264 (avc1 / 0x31637661), yuv420p(tv, progressive), 1280x720, q=2-31, 30 fps, 15360 tbn
    Metadata:
      encoder         : Lavc60.31.102 libx264
    Side data:
      cpb: bitrate max/min/avg: 0/0/0 buffer size: 0 vbv_delay: N/A
frame=    0 fps=0.0 q=0.0 size=       0kB time=N/A bitrate=N/A speed=N/A    frame=    0 fps=0.0 q=0.0 size=       0kB time=N/A bitrate=N/A speed=N/A    frame=   44 fps= 44 q=24.0 size=       0kB time=00:00:01.40 bitrate=   0.3kbits/s speed=1.39x    frame=   99 fps= 65 q=24.0 size=       0kB time=00:00:03.23 bitrate=   0.1kbits/s speed=2.14x    [out#0/mp4 @ 0x5aa2fb52ac80] video:243kB audio:0kB subtitle:0kB other streams:0kB global headers:0kB muxing overhead: 1.205580%
frame=  180 fps=107 q=-1.0 Lsize=     246kB time=00:00:05.90 bitrate= 341.0kbits/s speed=3.51x    
[libx264 @ 0x5aa2fb52c480] frame I:1     Avg QP:12.14  size: 52336
[libx264 @ 0x5aa2fb52c480] frame P:46    Avg QP:16.16  size:  2796
[libx264 @ 0x5aa2fb52c480] frame B:133   Avg QP:24.46  size:   503
[libx264 @ 0x5aa2fb52c480] consecutive B-frames:  0.6%  1.1%  5.0% 93.3%
[libx264 @ 0x5aa2fb52c480] mb I  I16..4: 33.6% 44.6% 21.8%
[libx264 @ 0x5aa2fb52c480] mb P  I16..4:  0.1%  0.1%  0.1%  P16..4:  2.1%  0.9%  0.8%  0.0%  0.0%    skip:96.0%
[libx264 @ 0x5aa2fb52c480] mb B  I16..4:  0.0%  0.1%  0.0%  B16..8:  1.4%  0.3%  0.2%  direct: 0.2%  skip:97.8%  L0:45.1% L1:46.0% BI: 8.9%
[libx264 @ 0x5aa2fb52c480] 8x8 transform intra:49.2% inter:21.9%
[libx264 @ 0x5aa2fb52c480] coded y,uvDC,uvAC intra: 17.6% 19.2% 14.2% inter: 0.6% 0.4% 0.2%
[libx264 @ 0x5aa2fb52c480] i16 v,h,dc,p: 78% 18%  3%  1%
[libx264 @ 0x5aa2fb52c480] i8 v,h,dc,ddl,ddr,vr,hd,vl,hu: 40% 16% 42%  0%  0%  0%  0%  0%  1%
[libx264 @ 0x5aa2fb52c480] i4 v,h,dc,ddl,ddr,vr,hd,vl,hu: 28% 31% 14%  3%  4%  4%  7%  4%  6%
[libx264 @ 0x5aa2fb52c480] i8c dc,h,v,p: 68% 16% 15%  1%
[libx264 @ 0x5aa2fb52c480] Weighted P-Frames: Y:0.0% UV:0.0%
[libx264 @ 0x5aa2fb52c480] ref P L0: 73.4%  6.0% 14.2%  6.4%
[libx264 @ 0x5aa2fb52c480] ref B L0: 76.3% 19.8%  3.8%
[libx264 @ 0x5aa2fb52c480] ref B L1: 93.7%  6.3%
[libx264 @ 0x5aa2fb52c480] kb/s:330.43
